<svg xmlns="http://www.w3.org/2000/svg" viewBox="0 -8 78.73 95" x="0px" y="0px">
    <title>key guide ledgend</title>
    <g data-name="Layer 2">
        <g data-name="Layer 41">
            <path d="M12.82,24.25A12.13,12.13,0,1,0,.7,12.13,12.14,12.14,0,0,0,12.82,24.25ZM12.82,2A10.13,10.13,0,1,1,2.7,12.13,10.14,10.14,0,0,1,12.82,2Z" />
            <path d="M.73,56.47H24.95V32.25H.73Zm2-22.22H22.95V54.47H2.73Z" />
            <path d="M0,85.74H25.71L12.86,63.47Zm3.46-2,9.39-16.27,9.39,16.27Z" />
            <path d="M77.73,11.13H34a1,1,0,0,0,0,2H77.73a1,1,0,0,0,0-2Z" />
            <path d="M76.76,43.36H33a1,1,0,0,0,0,2H76.76a1,1,0,0,0,0-2Z" />
            <path d="M76.76,74.1H33a1,1,0,0,0,0,2H76.76a1,1,0,0,0,0-2Z" />
        </g>
    </g>
</svg>