<svg xmlns="http://www.w3.org/2000/svg" xmlns:xlink="http://www.w3.org/1999/xlink" version="1.1" x="0px" y="0px" viewBox="0 0 48 48" xml:space="preserve">
    <g>
        <path d="M42,2.8089173H6c-1.6542969,0-3,1.3457029-3,2.9999998v36c0,1.6542969,1.3457031,3,3,3h36c1.6542969,0,3-1.3457031,3-3v-36   C45,4.1546202,43.6542969,2.8089173,42,2.8089173z M6,4.808917h36c0.5517578,0,1,0.4482422,1,1v21.9957886l-6.4003906-4.7955933   c-0.3544922-0.2666016-0.8388672-0.265625-1.1933594-0.0048828l-8.5123291,6.2845459l-6.1868896-6.1868896   c-0.390625-0.390625-1.0234375-0.390625-1.4140625,0L5,37.3948555V5.808917C5,5.2571592,5.4487305,4.808917,6,4.808917z    M5,41.808918v-1.5859375l15-15L37.5859375,42.808918H6C5.4487305,42.808918,5,42.3606758,5,41.808918z M42,42.808918h-1.5859375   L28.3240356,30.7188911l7.6710815-5.6638794L43,30.3028755V41.808918C43,42.3606758,42.5517578,42.808918,42,42.808918z" />
        <path d="M32,16.808918c2.7568359,0,5-2.243165,5-5.000001s-2.2431641-5-5-5s-5,2.2431641-5,5S29.2431641,16.808918,32,16.808918z    M32,8.808917c1.6542969,0,3,1.3457031,3,3s-1.3457031,3-3,3s-3-1.3457031-3-3S30.3457031,8.808917,32,8.808917z" />
    </g>
</svg>