<svg xmlns:dc="http://purl.org/dc/elements/1.1/" xmlns:cc="http://creativecommons.org/ns#" xmlns:rdf="http://www.w3.org/1999/02/22-rdf-syntax-ns#" xmlns:svg="http://www.w3.org/2000/svg" xmlns="http://www.w3.org/2000/svg" xmlns:sodipodi="http://sodipodi.sourceforge.net/DTD/sodipodi-0.dtd" xmlns:inkscape="http://www.inkscape.org/namespaces/inkscape" version="1.1" x="0px" y="0px" viewBox="0 0 100 100">
    <g transform="translate(0,-952.36218)">
        <path d="m 20,960.36215 c -1.0472,10e-5 -1.9999,0.95283 -2,2 l 0,20 -5,0 c -4.3973998,0 -7.9999998,3.6026 -7.9999998,8 l 0,30.00005 c 0,4.3974 3.6026,8 7.9999998,8 l 5,0 0,14 c 10e-5,1.0472 0.9528,1.9999 2,2 l 60,0 c 1.0472,-10e-5 1.9999,-0.9528 2,-2 l 0,-14 5,0 c 4.3974,0 8,-3.6026 8,-8 l 0,-30.00005 c 0,-4.3974 -3.6026,-8 -8,-8 l -5,0 0,-20 c -1e-4,-1.04717 -0.9528,-1.9999 -2,-2 z m 2,4 56,0 0,18 -56,0 z m -9,22 6.8438,0 60.3437,0 6.8125,0 c 2.2504,0 4,1.7496 4,4 l 0,30.00005 c 0,2.2504 -1.7496,4 -4,4 l -5,0 0,-14 c -1e-4,-1.0472 -0.9528,-1.9999 -2,-2 l -60,0 c -1.0472,10e-5 -1.9999,0.9528 -2,2 l 0,14 -5,0 c -2.2504,0 -3.9999998,-1.7496 -3.9999998,-4 l 0,-30.00005 c 0,-2.2504 1.7495998,-4 3.9999998,-4 z m 67,5 c -3.29,0 -6,2.71 -6,6 0,3.28995 2.71,5.99995 6,5.99995 3.29,0 6,-2.71 6,-5.99995 0,-3.29 -2.71,-6 -6,-6 z m 0,4 c 1.1282,0 2,0.8718 2,2 0,1.1282 -0.8718,2 -2,2 -1.1282,0 -2,-0.8718 -2,-2 0,-1.1282 0.8718,-2 2,-2 z m -58,17.00005 56,0 0,28 -56,0 z" style="text-indent:0;text-transform:none;direction:ltr;block-progression:tb;baseline-shift:baseline;color:#000000;enable-background:accumulate;" fill="#000000" fill-opacity="1" stroke="none" marker="none" visibility="visible" display="inline" overflow="visible" />
    </g>
</svg>